{"title":"Hurricane 2018 English HDRip - x264 - AAC - AVC -900MB","magnet":"magnet:?xt=urn:btih:f10629633656438063604fa9c4232d5878f5187b&dn=Hurricane+2018+English+HDRip+-+x264+-+AAC+-+AVC+-900MB&tr=udp%3A%2F%2Ftracker.leechers-paradise.org%3A6969&tr=udp%3A%2F%2Fzer0day.ch%3A1337&tr=udp%3A%2F%2Fopen.demonii.com%3A1337&tr=udp%3A%2F%2Ftracker.coppersurfer.tk%3A6969&tr=udp%3A%2F%2Fexodus.desync.com%3A6969","uploader":"pronton","categoryP":"video","categoryS":"movies","size":"972630491","seeders":"6","leechers":"17","description":"Hurricane 2018 English HDRip - x264 - AAC - AVC -900MB\r\n\r\nScreens :\r\n <a href=\"\nhttp://extraimage.site/image/3vfw\" rel=\"nofollow\" target=\"_NEW\">\nhttp://extraimage.site/image/3vfw</a>\r\n <a href=\"\nhttp://extraimage.site/image/30ZG\" rel=\"nofollow\" target=\"_NEW\">\nhttp://extraimage.site/image/30ZG</a>\r\n <a href=\"\nhttp://extraimage.site/image/3eDX\" rel=\"nofollow\" target=\"_NEW\">\nhttp://extraimage.site/image/3eDX</a>\r\n\r\n\r\nFormat : MPEG-4\r\nFormat profile : Base Media\r\nCodec ID : isom (isom/iso2/avc1/mp41)\r\nFile size : 928 MiB\r\nDuration : 1 h 47 min\r\nOverall bit rate : 1 205 kb/s\r\nVideo\r\nID : 1\r\nFormat : AVC\r\nFormat/Info : Advanced Video Codec\r\nFormat profile : High@L3.1\r\nFormat settings : CABAC / 5 Ref Frames\r\nFormat settings, CABAC : Yes\r\nFormat settings, ReFrames : 5 frames\r\nCodec ID : avc1\r\nCodec ID/Info : Advanced Video Coding\r\nDuration : 1 h 47 min\r\nBit rate : 1 088 kb/s\r\nWidth : 1 280 pixels\r\nHeight : 530 pixels\r\nDisplay aspect ratio : 2.40:1\r\nFrame rate mode : Constant\r\nFrame rate : 24.000 FPS\r\nColor space : YUV\r\nChroma subsampling : 4:2:0\r\nBit depth : 8 bits\r\nScan type : Progressive\r\nBits/(Pixel*Frame) : 0.067\r\nStream size : 826 MiB (89%)\r\n\r\n\r\nAudio\r\nID : 2\r\nFormat : AAC\r\nFormat/Info : Advanced Audio Codec\r\nFormat profile : LC\r\nDuration : 1 h 47 min\r\nDuration_LastFrame : -11 ms\r\nBit rate mode : Constant\r\nBit rate : 128 kb/s\r\nChannel(s) : 2 channels\r\nChannel positions : Front: L R\r\nSampling rate : 48.0 kHz\r\nFrame rate : 46.875 FPS (1024 SPF)\r\nCompression mode : Lossy\r\nStream size : 98.5 MiB (11%)\r\nDefault : Yes\r\nAlternate group : 1","last_updated":"2018-09-20T12:15:20.005Z","parsed":{"xt":"urn:btih:f10629633656438063604fa9c4232d5878f5187b","dn":"Hurricane 2018 English HDRip - x264 - AAC - AVC -900MB","tr":["udp://exodus.desync.com:6969","udp://open.demonii.com:1337","udp://tracker.coppersurfer.tk:6969","udp://tracker.leechers-paradise.org:6969","udp://zer0day.ch:1337"],"infoHash":"f10629633656438063604fa9c4232d5878f5187b","infoHashBuffer":{"type":"Buffer","data":[241,6,41,99,54,86,67,128,99,96,79,169,196,35,45,88,120,245,24,123]},"name":"Hurricane 2018 English HDRip - x264 - AAC - AVC -900MB","announce":["udp://exodus.desync.com:6969","udp://open.demonii.com:1337","udp://tracker.coppersurfer.tk:6969","udp://tracker.leechers-paradise.org:6969","udp://zer0day.ch:1337"],"urlList":[]}}